<svg xmlns="http://www.w3.org/2000/svg" width="474.346" height="357.284" version="1.0"><path d="M245.487.006c-2.691.08-5.435.926-7.764 2.584h-.008L3.065 175.12c-1.912 1.402-3.089 3.754-3.065 6.125.025 2.37 1.25 4.7 3.19 6.062l234.66 165.19c4.182 3.247 11.503 6.591 16.197 3.66 2.498-1.647 3.83-4.89 3.21-7.817l-21.282-101.16 230.09 23.94a7.605 7.605 0 0 0 5.793-1.881 7.6 7.6 0 0 0 2.488-5.557V105.741c.05-10.531-8.873-11.915-16.031-11l-221.63 23.04 20.6-104.16c1.612-9.023-4.921-13.82-11.798-13.615Z" style="color:#000;fill:#ff8000;fill-rule:evenodd;-inkscape-stroke:none;fill-opacity:1"/></svg>